<svg width="35" height="39" viewBox="0 0 35 39" fill="none" xmlns="http://www.w3.org/2000/svg">
<path d="M25.375 0.912109C30.5926 0.912109 34.75 5.67822 34.75 11.8789C34.75 15.6527 33.2912 19.1007 30.6934 22.8047C28.4173 26.0498 25.2801 29.4734 21.5098 33.4717L19.8555 35.2217V35.2227L17.5 37.7207L15.1445 35.2227V35.2217L13.4902 33.4717C9.71992 29.4734 6.58272 26.0498 4.30664 22.8047C1.70877 19.1007 0.25 15.6527 0.25 11.8789C0.250042 5.67822 4.40736 0.912109 9.625 0.912109C12.5791 0.912109 15.4312 2.51681 17.2988 5.05273L17.5 5.32617L17.7012 5.05273C19.5688 2.51682 22.4209 0.912109 25.375 0.912109ZM25.375 4.49121C22.6155 4.49121 19.9574 6.52862 18.9512 9.30371H16.0488C15.0426 6.52862 12.3845 4.49121 9.625 4.49121C5.95242 4.49121 3.25004 7.69928 3.25 11.8789C3.25 14.9055 4.6611 17.8858 7.08496 21.1895C8.90307 23.6674 11.3067 26.3472 14.1465 29.3848L17.126 32.5469L17.3184 32.751L17.5088 32.9531L17.6895 32.7422L17.8564 32.5469C22.0175 28.1561 25.4868 24.4934 27.9131 21.1895C30.3392 17.8858 31.75 14.9055 31.75 11.8789C31.75 7.69928 29.0476 4.49121 25.375 4.49121Z" fill="black" stroke="black" stroke-width="0.5"/>
</svg>
