<svg width="39" height="39" viewBox="0 0 39 39" fill="none" xmlns="http://www.w3.org/2000/svg">
<path d="M37 37L25.3333 25.3333M2 15.6111C2 17.3985 2.35206 19.1685 3.03608 20.8199C3.72011 22.4712 4.72269 23.9717 5.9866 25.2356C7.25051 26.4995 8.75099 27.5021 10.4024 28.1861C12.0537 28.8702 13.8237 29.2222 15.6111 29.2222C17.3985 29.2222 19.1685 28.8702 20.8199 28.1861C22.4712 27.5021 23.9717 26.4995 25.2356 25.2356C26.4995 23.9717 27.5021 22.4712 28.1861 20.8199C28.8702 19.1685 29.2222 17.3985 29.2222 15.6111C29.2222 13.8237 28.8702 12.0537 28.1861 10.4024C27.5021 8.75099 26.4995 7.25051 25.2356 5.9866C23.9717 4.72269 22.4712 3.72011 20.8199 3.03608C19.1685 2.35206 17.3985 2 15.6111 2C13.8237 2 12.0537 2.35206 10.4024 3.03608C8.75099 3.72011 7.25051 4.72269 5.9866 5.9866C4.72269 7.25051 3.72011 8.75099 3.03608 10.4024C2.35206 12.0537 2 13.8237 2 15.6111Z" stroke="black" stroke-width="3" stroke-linecap="round" stroke-linejoin="round"/>
</svg>
